<svg width="110" height="17" viewBox="0 0 110 17" fill="none" xmlns="http://www.w3.org/2000/svg">
<g clip-path="url(#clip0_369_13199)">
<path d="M14.0016 16.5047V0.393555H17.4839V16.5047H14.0016ZM81.7217 10.4812C81.7217 6.58488 78.8548 4.17545 75.4956 4.17545C72.1364 4.17545 69.2694 6.61538 69.2694 10.4812C69.2694 14.3469 72.1364 16.8097 75.4956 16.8097C78.8548 16.8097 81.7217 14.3469 81.7217 10.4812ZM78.2829 10.4812C78.2829 12.517 76.987 13.6607 75.4811 13.6607C73.9753 13.6607 72.6793 12.517 72.6793 10.4812C72.6793 8.44533 73.9753 7.32449 75.4811 7.32449C76.987 7.32449 78.2829 8.42246 78.2829 10.4812ZM12.5971 11.8689C12.5971 10.0542 11.7066 8.66645 10.1139 8.04122C11.6197 7.17199 12.1555 6.02827 12.1555 4.68631C12.1482 2.33788 10.5338 0.393555 6.92839 0.416429H0V16.5276H7.22522C10.8595 16.5047 12.5971 14.6062 12.5971 11.8765V11.8689ZM8.45597 5.15905C8.45597 6.25702 7.79716 6.88225 6.52297 6.88225H3.63433V3.52734H6.52297C7.68856 3.52734 8.45597 4.06108 8.45597 5.15905ZM8.77452 11.6249C8.77452 12.6771 8.07227 13.3709 6.77636 13.3709H3.63433V9.87879H6.77636C8.02883 9.87879 8.77452 10.5498 8.77452 11.6249ZM42.9314 7.46173C41.9758 5.35729 40.1876 4.19832 37.4944 4.19832C34.3089 4.19832 31.4637 6.30277 31.4637 10.4888C31.4637 14.6748 33.9687 16.8174 37.451 16.8174C39.8907 16.8174 41.9541 15.788 42.9314 13.5768L40.1297 12.0519C39.6229 13.0355 38.8338 13.6607 37.5813 13.6607C35.9668 13.6607 34.9243 12.456 34.9243 10.4812C34.9243 8.50633 36.1116 7.32449 37.5596 7.32449C38.689 7.32449 39.536 7.85822 40.0645 9.02482L42.9314 7.46173ZM94.2826 7.46173C93.327 5.35729 91.5388 4.19832 88.8456 4.19832C85.6601 4.19832 82.8149 6.30277 82.8149 10.4888C82.8149 14.6748 85.3199 16.8174 88.8022 16.8174C91.2419 16.8174 93.3053 15.788 94.2826 13.5768L91.4809 12.0519C90.9741 13.0355 90.1849 13.6607 88.9325 13.6607C87.318 13.6607 86.2755 12.456 86.2755 10.4812C86.2755 8.50633 87.4628 7.32449 88.9108 7.32449C90.0401 7.32449 90.8872 7.85822 91.4157 9.02482L94.2826 7.46173ZM65.0704 16.5047L62.1601 11.0911H59.9302V16.5047H56.3393V0.393555H62.8189C66.3229 0.393555 68.7699 2.16251 68.7699 5.63178C68.7699 7.8506 67.7274 9.41368 65.8813 10.3744L69.2405 16.5047H65.0777H65.0704ZM59.952 7.88872H62.6306C64.2885 7.88872 65.0921 6.90513 65.0921 5.73853C65.0921 4.35082 64.3247 3.58834 62.6306 3.58834H59.952V7.8811V7.88872ZM30.8918 16.2989V13.7674C30.7398 13.8132 30.5298 13.8589 30.2981 13.8589C29.8493 13.8589 29.6176 13.6149 29.6176 13.188V9.00194C29.6176 5.86815 27.6195 4.21357 24.3254 4.21357C22.1824 4.21357 20.3508 5.04468 19.2069 6.11215L21.1399 8.39196C21.9073 7.67523 22.9209 7.22537 23.92 7.22537C25.4475 7.22537 26.1715 8.03359 26.1715 9.35268V9.73392C25.4475 9.55855 24.5353 9.37556 23.4277 9.37556C20.6476 9.37556 18.8377 10.7861 18.8377 13.1117C18.8377 15.4373 20.3436 16.7564 22.682 16.7564C24.2747 16.7564 25.7009 16.0625 26.4394 15.1704C26.8882 16.3599 27.8656 16.6725 28.8212 16.6725C29.4801 16.6954 30.2475 16.581 30.8846 16.2912L30.8918 16.2989ZM26.1932 12.517C26.1932 13.6149 25.1942 14.3317 24.0503 14.3317C22.9643 14.3317 22.4358 13.7522 22.4358 12.944C22.4358 12.09 23.0295 11.4647 24.2385 11.4647C24.9842 11.4647 25.643 11.602 26.1932 11.7316V12.517ZM106.728 16.5047L102.63 9.00957L106.474 4.60244H102.608L98.554 9.34506V0.416429H95.0935V16.5276H98.554V13.6226L100.212 11.7621L102.804 16.5276H106.735V16.5047H106.728ZM55.4271 16.5047L51.3295 9.00957L55.1738 4.60244H51.2643L47.2463 9.34506V0.416429H43.7857V16.5276H47.2463V13.6226L48.9042 11.7621L51.496 16.5276H55.4271V16.5047ZM108.856 14.263C109.58 14.263 110 14.7358 110 15.4525C110 16.1692 109.573 16.642 108.856 16.642C108.139 16.642 107.712 16.1692 107.712 15.4525C107.712 14.7358 108.139 14.263 108.856 14.263ZM108.856 16.4819C109.428 16.4819 109.812 16.1235 109.812 15.4525C109.812 14.7815 109.406 14.4232 108.856 14.4232C108.306 14.4232 107.9 14.7815 107.9 15.4525C107.879 16.1464 108.284 16.4819 108.856 16.4819ZM108.407 14.8502H108.878C109.153 14.8502 109.305 15.0103 109.305 15.2314C109.305 15.4296 109.218 15.544 109.073 15.6126L109.283 16.0396H109.073L108.885 15.6584H108.632V16.0396H108.422V14.8502H108.407ZM108.617 15.0255V15.4525H108.849C109.001 15.4525 109.081 15.4068 109.081 15.2543C109.081 15.117 109.015 15.056 108.871 15.056H108.617V15.0332V15.0255Z" fill="#202448"/>
</g>
<defs>
<clipPath id="clip0_369_13199">
<rect width="110" height="16.4238" fill="white" transform="translate(0 0.393555)"/>
</clipPath>
</defs>
</svg>
