<svg width="122" height="48" viewBox="0 0 122 48" fill="none" xmlns="http://www.w3.org/2000/svg">
<g clip-path="url(#clip0_369_13143)">
<path d="M113.197 43.0934C113.197 45.5096 114.538 46.7548 116.171 46.7548C117.803 46.7548 119.135 45.5096 119.135 43.0934C119.135 40.6773 117.803 39.4971 116.171 39.4971C114.538 39.4971 113.197 40.7423 113.197 43.0934ZM120.371 46.569H121.773V47.8142H119.144V46.4481C118.623 47.3124 117.459 48.0001 116.056 48.0001C113.55 48.0001 111.918 45.8906 111.918 43.1027C111.918 40.3149 113.55 38.2054 116.056 38.2054C117.388 38.2054 118.5 38.828 119.082 39.7573V35.91H117.679V34.6648H120.362V46.5782L120.371 46.569Z" fill="#202448"/>
<path d="M107.832 46.5689H109.226V47.8141H105.088V46.5689H106.491V39.6178H105.088V38.4376H107.709V39.7386C108.238 38.7443 109.518 37.815 111.265 38.4376V39.8036C109.165 39.181 107.824 40.3612 107.824 42.5357V46.5689H107.832Z" fill="#202448"/>
<path d="M70.297 14.5644C67.9676 15.4937 66.3882 17.1106 66.3882 17.1106C66.3352 16.3021 66.1588 15.4937 65.9205 14.8803C65.9205 14.8803 66.6794 13.3284 68.8941 11.7208C71.2852 9.983 74.0205 9.49048 74.0205 9.49048C74.6029 10.7915 75.0088 12.1575 75.1852 13.5793C75.1852 13.5793 73.1999 13.3935 70.2882 14.5737L70.297 14.5644Z" fill="#202448"/>
<path d="M68.6117 9.42541C66.3441 11.7858 65.5235 14.1369 65.5235 14.1369C65.1088 13.3935 64.5882 12.7708 63.8911 12.2783C63.8911 12.2783 64.7646 9.49046 66.1058 7.43674C67.4382 5.32726 69.6617 3.65454 69.6617 3.65454C70.7735 4.51878 71.6999 5.57816 72.5205 6.69331C72.5205 6.69331 70.3058 7.7434 68.6117 9.42541Z" fill="#202448"/>
<path d="M64.65 6.49812C63.6 9.28598 63.3706 11.953 63.3706 11.953C62.6735 11.5813 61.8 11.2747 61.0412 11.2096C61.0412 11.2096 60.9882 8.54255 61.5706 5.75469C62.2059 2.53007 62.9118 0.606445 62.9118 0.606445C64.2529 0.727253 65.5412 1.16402 66.7588 1.72159C66.7588 1.72159 65.3559 4.5745 64.6588 6.49812H64.65Z" fill="#202448"/>
<path d="M68.3735 23.9966C65.5235 22.5748 62.6647 22.8815 62.6647 22.8815C63.7147 22.4447 64.5882 21.7663 65.2323 20.8928C65.2323 20.8928 67.7382 20.5861 69.6617 20.9579C72.6353 21.6362 73.9147 22.6956 73.9147 22.6956C73.3323 23.9966 72.5735 25.2419 71.6382 26.292C71.6382 26.292 70.4735 25.0467 68.3735 23.9966Z" fill="#202448"/>
<path d="M70.5352 19.4617C67.6764 19.3409 65.7 20.1401 65.7 20.1401C66.0529 19.4617 66.2823 18.6532 66.3441 17.8447C66.3441 17.8447 68.6735 16.4787 70.7735 16.172C73.6852 15.7352 75.3794 16.3579 75.3794 16.3579C75.3176 17.7797 75.1499 19.2108 74.7352 20.5768C74.7352 20.5768 72.8735 19.5825 70.5352 19.4617Z" fill="#202448"/>
<path d="M51.1764 14.5644C53.5059 15.4937 55.0853 17.1106 55.0853 17.1106C55.1382 16.3021 55.3147 15.4937 55.5529 14.8803C55.5529 14.8803 54.7941 13.3284 52.5794 11.7208C50.1882 9.983 47.4529 9.49048 47.4529 9.49048C46.8706 10.7915 46.4647 12.1575 46.2882 13.5793C46.2882 13.5793 48.2735 13.3935 51.1853 14.5737L51.1764 14.5644Z" fill="#202448"/>
<path d="M52.8706 9.42541C55.1383 11.7858 55.9588 14.1369 55.9588 14.1369C56.3736 13.3935 56.8941 12.7708 57.5912 12.2783C57.5912 12.2783 56.7177 9.49046 55.3765 7.43674C54.0441 5.32726 51.8206 3.65454 51.8206 3.65454C50.7088 4.51878 49.7824 5.57816 48.9618 6.69331C48.9618 6.69331 51.1765 7.7434 52.8706 9.42541Z" fill="#202448"/>
<path d="M56.8323 6.49812C57.8823 9.28598 58.1117 11.953 58.1117 11.953C58.8088 11.5813 59.6823 11.2747 60.4411 11.2096C60.4411 11.2096 60.4941 8.54255 59.9117 5.75469C59.2764 2.53007 58.5794 0.606445 58.5794 0.606445C57.2382 0.727253 55.9499 1.16402 54.7323 1.72159C54.7323 1.72159 56.1352 4.5745 56.8323 6.49812Z" fill="#202448"/>
<path d="M53.1088 23.9966C55.9588 22.5748 58.8176 22.8815 58.8176 22.8815C57.7676 22.4447 56.8941 21.7663 56.25 20.8928C56.25 20.8928 53.7441 20.5861 51.8206 20.9579C48.847 21.6362 47.5676 22.6956 47.5676 22.6956C48.15 23.9966 48.9088 25.2419 49.8441 26.292C49.8441 26.292 51.0088 25.0467 53.1088 23.9966Z" fill="#202448"/>
<path d="M50.9382 19.4617C53.7971 19.3409 55.7735 20.1401 55.7735 20.1401C55.4206 19.4617 55.1912 18.6532 55.1294 17.8447C55.1294 17.8447 52.8 16.4787 50.7 16.172C47.7882 15.7352 46.0941 16.3579 46.0941 16.3579C46.1559 17.7797 46.3235 19.2108 46.7382 20.5768C46.7382 20.5768 48.6 19.5825 50.9382 19.4617Z" fill="#202448"/>
<path d="M60.7323 26.357C64.8705 26.357 66.6882 30.1392 66.6882 30.1392C67.9676 29.5165 69.1323 28.7731 70.2353 27.7788C70.2353 27.7788 66.7411 23.123 60.7323 23.123C54.7235 23.123 51.2911 27.7788 51.2911 27.7788C52.3411 28.7731 53.5676 29.5165 54.847 30.1392C54.847 30.1392 56.647 26.357 60.7323 26.357Z" fill="#202448"/>
<path d="M2.91176 36.0308V41.6158H5.0647C7.39412 41.6158 8.44412 40.6214 8.44412 38.8279C8.44412 37.0344 7.45588 36.04 5.0647 36.04H2.91176V36.0308ZM2.91176 46.5131H4.42941V47.8141H0V46.5131H1.51765V35.9657H0V34.7205H5.07353C7.87059 34.7205 9.79412 36.0215 9.79412 38.8186C9.79412 41.6158 7.87059 42.9075 5.07353 42.9075H2.92059V46.5038L2.91176 46.5131Z" fill="#202448"/>
<path d="M17.9559 42.6008C17.9559 40.8631 16.7294 39.497 15.0441 39.497C13.3588 39.497 12.1323 40.8631 12.1323 42.6008H17.9647H17.9559ZM18.9971 45.1471C18.5912 46.7641 17.1882 48 15.0353 48C12.4147 48 10.7823 46.2622 10.7823 43.1027C10.7823 40.1289 12.4765 38.2053 15.0353 38.2053C17.8323 38.2053 19.5794 40.5007 19.2353 43.8461H12.1235C12.2382 45.2679 13.1735 46.7641 15.0353 46.7641C16.2618 46.7641 17.1353 46.2065 17.6029 45.1471H19.0059H18.9971Z" fill="#202448"/>
<path d="M23.7794 46.5689H25.1823V47.8141H21.0441V46.5689H22.447V39.6178H21.0441V38.4376H23.6647V39.7386C24.1852 38.7443 25.4735 37.815 27.2205 38.4376V39.8036C25.1205 39.181 23.7794 40.3612 23.7794 42.5357V46.5689Z" fill="#202448"/>
<path d="M37.4735 46.5691H38.8765V47.8143H34.8V46.5691H36.203V42.601C36.203 40.4265 34.9765 39.4972 33.5824 39.4972C32.1883 39.4972 31.0765 40.4915 31.0765 42.7218V46.5691H32.4794V47.8143H28.403V46.5691H29.8059V39.618H28.403V38.4378H31.0235V39.7388C31.4912 38.9954 32.4794 38.252 33.8824 38.252C35.8059 38.252 37.5 39.4321 37.5 42.5917V46.5598L37.4735 46.5691Z" fill="#202448"/>
<path d="M44.3648 46.7548C46.1118 46.7548 47.3383 45.4538 47.3383 43.0934C47.3383 40.733 46.1118 39.497 44.3648 39.497C42.6177 39.497 41.3912 40.7423 41.3912 43.0934C41.3912 45.4445 42.6706 46.7548 44.3648 46.7548ZM44.3648 38.196C47.1089 38.196 48.6795 40.3055 48.6795 43.0934C48.6795 45.8812 47.1089 47.9907 44.3648 47.9907C41.6206 47.9907 40.1118 45.9463 40.1118 43.0934C40.1118 40.2405 41.6824 38.196 44.3648 38.196Z" fill="#202448"/>
<path d="M51.5206 43.0934C51.5206 45.5096 52.8618 46.7548 54.4942 46.7548C56.1265 46.7548 57.4589 45.5096 57.4589 43.0934C57.4589 40.6773 56.1265 39.4971 54.4942 39.4971C52.8618 39.4971 51.5206 40.7423 51.5206 43.0934ZM58.6941 46.569H60.0971V47.8142H57.4677V46.4481C56.9471 47.3124 55.7824 48.0001 54.3794 48.0001C51.8736 48.0001 50.2412 45.8906 50.2412 43.1027C50.2412 40.3149 51.8736 38.2054 54.3794 38.2054C55.7118 38.2054 56.8236 38.828 57.4059 39.7573V35.91H56.003V34.6648H58.6853V46.5782L58.6941 46.569Z" fill="#202448"/>
<path d="M68.8941 36.0309V40.8724H71.7441C73.6058 40.8724 74.3735 39.9432 74.3735 38.4563C74.3735 36.9694 73.6147 36.0402 71.7441 36.0402H68.8941V36.0309ZM65.9823 34.6648H71.7529C74.0823 34.6648 75.7764 36.0309 75.7764 38.447C75.7764 40.5565 74.5499 41.7924 72.7499 42.1642L74.7352 46.5039H76.3676V47.8049H73.7999L71.2323 42.2199H68.9029V46.5039H70.2352V47.8049H65.9823V46.5039H67.4999V35.9565H65.9823V34.6555V34.6648Z" fill="#202448"/>
<path d="M79.2089 36.4583H80.6736V34.6555H79.2089V36.4583ZM80.6647 46.569H82.0677V47.8142H77.9294V46.569H79.3324V39.6179H77.9294V38.4377H80.6736V46.5597L80.6647 46.569Z" fill="#202448"/>
<path d="M91.8088 44.4037C91.3412 46.5131 90 48 87.547 48C84.8647 48 83.2853 45.9556 83.2853 43.1027C83.2853 40.2498 84.8647 38.2053 87.547 38.2053C88.8265 38.2053 90 38.8837 90.5206 39.7572V38.4562H91.7382V41.8667H90.3353C89.9294 40.5657 89.1088 39.5063 87.5382 39.5063C85.8441 39.5063 84.5647 40.7516 84.5647 43.1027C84.5647 45.4538 85.8441 46.7641 87.5382 46.7641C89.0559 46.7641 90.0441 45.7697 90.45 44.4037H91.7912H91.8088Z" fill="#202448"/>
<path d="M94.7205 43.0934C94.7205 45.5095 96 46.7547 97.6323 46.7547C99.2647 46.7547 100.597 45.5095 100.597 43.0934C100.597 40.6772 99.2647 39.497 97.6323 39.497C96 39.497 94.7205 40.7423 94.7205 43.0934ZM100.553 38.4469H103.235V39.6271H101.832V46.5782H103.235V47.8234H100.553V46.4574C100.023 47.3867 98.8588 48.0093 97.5264 48.0093C95.0117 48.0093 93.3882 45.8998 93.3882 43.1119C93.3882 40.3241 95.0205 38.2146 97.5264 38.2146C98.8588 38.2146 100.023 38.8372 100.553 39.7665V38.4655V38.4469Z" fill="#202448"/>
</g>
<defs>
<clipPath id="clip0_369_13143">
<rect width="121.765" height="47.3936" fill="white" transform="translate(0 0.606445)"/>
</clipPath>
</defs>
</svg>
